<?xml version="1.0" encoding="UTF-8"?><svg id="a" xmlns="http://www.w3.org/2000/svg" width="124.22" height="96.33" viewBox="0 0 124.22 96.33"><path d="M22.59,96.08v-6.4c0-2.41-1.53-4.03-4.01-4.05-1.3-.02-2.65.38-3.58,1.81-.7-1.13-1.81-1.81-3.37-1.81-1.09,0-2.15.32-2.99,1.51v-1.26h-2.22v10.19h2.24v-5.65c0-1.77.98-2.71,2.49-2.71s2.22.96,2.22,2.69v5.67h2.24v-5.65c0-1.77,1.02-2.71,2.5-2.71s2.24.96,2.24,2.69v5.67h2.24ZM55.73,85.89h-3.63v-3.09h-2.24v3.09h-2.07v2.03h2.07v4.65c0,2.37.92,3.77,3.54,3.77.96,0,2.07-.3,2.77-.79l-.64-1.9c-.66.38-1.39.58-1.96.58-1.11,0-1.47-.68-1.47-1.7v-4.61h3.63v-2.03ZM74.65,85.63c-1.28,0-2.11.6-2.69,1.49v-1.24h-2.2v10.19h2.22v-5.71c0-1.68.73-2.62,2.18-2.62.45,0,.92.06,1.39.26l.68-2.09c-.49-.19-1.13-.28-1.58-.28M46.05,86.7c-1.06-.7-2.54-1.07-4.16-1.07-2.58,0-4.24,1.24-4.24,3.26,0,1.66,1.24,2.69,3.52,3.01l1.05.15c1.21.17,1.79.49,1.79,1.06,0,.79-.81,1.24-2.32,1.24s-2.65-.49-3.39-1.07l-1.04,1.73c1.22.9,2.75,1.32,4.41,1.32,2.94,0,4.65-1.38,4.65-3.32,0-1.79-1.35-2.73-3.56-3.05l-1.04-.15c-.96-.13-1.73-.32-1.73-1,0-.75.72-1.2,1.94-1.2,1.3,0,2.56.49,3.18.88l.96-1.79ZM105.46,85.63c-1.28,0-2.11.6-2.68,1.49v-1.24h-2.2v10.19h2.22v-5.71c0-1.68.73-2.62,2.18-2.62.45,0,.92.06,1.39.26l.68-2.09c-.49-.19-1.13-.28-1.58-.28M76.89,90.98c0,3.09,2.15,5.35,5.44,5.35,1.54,0,2.56-.34,3.67-1.22l-1.06-1.79c-.83.6-1.71.92-2.67.92-1.77-.02-3.07-1.3-3.07-3.26s1.3-3.24,3.07-3.26c.96,0,1.83.32,2.67.92l1.06-1.79c-1.11-.87-2.13-1.22-3.67-1.22-3.28,0-5.44,2.26-5.44,5.35M97.65,90.98v-5.1h-2.22v1.24c-.7-.92-1.77-1.49-3.22-1.49-2.86,0-5.1,2.24-5.1,5.35s2.24,5.35,5.1,5.35c1.45,0,2.52-.58,3.22-1.49v1.24h2.22v-5.1ZM89.4,90.98c0-1.79,1.17-3.26,3.09-3.26s3.07,1.41,3.07,3.26-1.24,3.26-3.07,3.26-3.09-1.47-3.09-3.26M62.64,85.63c-2.99,0-5.07,2.18-5.07,5.35s2.18,5.35,5.23,5.35c1.53,0,2.94-.38,4.18-1.43l-1.09-1.64c-.85.68-1.94,1.06-2.97,1.06-1.43,0-2.73-.66-3.05-2.49h7.57c.02-.28.04-.56.04-.85-.02-3.18-1.98-5.35-4.84-5.35M62.6,87.61c1.43,0,2.34.9,2.58,2.47h-5.29c.23-1.47,1.13-2.47,2.71-2.47M118.23,90.98v-9.19h-2.22v5.33c-.7-.92-1.77-1.49-3.22-1.49-2.86,0-5.1,2.24-5.1,5.35s2.24,5.35,5.1,5.35c1.45,0,2.52-.58,3.22-1.49v1.24h2.22v-5.1ZM109.98,90.98c0-1.79,1.17-3.26,3.09-3.26s3.07,1.41,3.07,3.26-1.24,3.26-3.07,3.26-3.09-1.47-3.09-3.26M35.09,90.98v-5.1h-2.22v1.24c-.7-.92-1.77-1.49-3.22-1.49-2.86,0-5.1,2.24-5.1,5.35s2.24,5.35,5.1,5.35c1.45,0,2.52-.58,3.22-1.49v1.24h2.22v-5.1ZM26.84,90.98c0-1.79,1.17-3.26,3.09-3.26s3.07,1.41,3.07,3.26-1.24,3.26-3.07,3.26-3.09-1.47-3.09-3.26" style="fill:#010101;"/><rect x="45.31" y="8.21" width="33.59" height="60.36" style="fill:#f16522;"/><path d="M47.45,38.39c0-12.25,5.73-23.15,14.66-30.18C55.58,3.07,47.34,0,38.39,0,17.19,0,0,17.19,0,38.39s17.19,38.39,38.39,38.39c8.96,0,17.19-3.07,23.72-8.21-8.93-7.03-14.66-17.93-14.66-30.18" style="fill:#e41b24;"/><path d="M124.22,38.39c0,21.2-17.19,38.39-38.39,38.39-8.95,0-17.19-3.07-23.72-8.21,8.93-7.03,14.66-17.93,14.66-30.18s-5.73-23.15-14.66-30.18c6.53-5.14,14.77-8.21,23.72-8.21,21.2,0,38.39,17.19,38.39,38.39" style="fill:#f89e1b;"/></svg>